<svg xmlns="http://www.w3.org/2000/svg" xmlns:xlink="http://www.w3.org/1999/xlink" width="500" zoomAndPan="magnify" viewBox="0 0 375 374.999991" height="500" preserveAspectRatio="xMidYMid meet" version="1.0"><defs><g/><clipPath id="6154b7626c"><path d="M 108.386719 144.375 L 302.269531 144.375 L 302.269531 338.257812 L 108.386719 338.257812 Z M 108.386719 144.375 " clip-rule="nonzero"/></clipPath><clipPath id="0d9fee10fc"><path d="M 205.328125 144.375 C 151.789062 144.375 108.386719 187.777344 108.386719 241.316406 C 108.386719 294.855469 151.789062 338.257812 205.328125 338.257812 C 258.867188 338.257812 302.269531 294.855469 302.269531 241.316406 C 302.269531 187.777344 258.867188 144.375 205.328125 144.375 Z M 205.328125 144.375 " clip-rule="nonzero"/></clipPath></defs><g fill="#fffbde" fill-opacity="1"><g transform="translate(11.903019, 235.242523)"><g><path d="M 252.21875 -108.4375 C 268.40625 -108.4375 282.140625 -121.6875 282.140625 -138.375 C 282.140625 -154.5625 268.40625 -167.8125 252.21875 -167.8125 C 235.53125 -167.8125 222.28125 -154.5625 222.28125 -138.375 C 222.28125 -121.6875 235.53125 -108.4375 252.21875 -108.4375 Z M 93.234375 5.890625 L 124.640625 -57.90625 L 70.171875 -163.40625 L 9.8125 -163.40625 Z M 193.328125 5.890625 L 224.25 -57.90625 L 169.78125 -163.40625 L 109.90625 -163.40625 Z M 193.328125 5.890625 "/></g></g></g><g clip-path="url(#6154b7626c)"><g clip-path="url(#0d9fee10fc)"><path fill="#dde0bd" d="M 108.386719 144.375 L 302.269531 144.375 L 302.269531 338.257812 L 108.386719 338.257812 Z M 108.386719 144.375 " fill-opacity="1" fill-rule="nonzero"/></g></g><g fill="#fffbde" fill-opacity="1"><g transform="translate(176.51371, 192.059532)"><g><path d="M 14.65625 0 L 57.9375 0 L 57.9375 -183.9375 L 14.65625 -183.9375 Z M 118.328125 0 L 161.25 0 L 161.25 -183.9375 L 118.328125 -183.9375 Z M 118.328125 0 "/></g></g></g><g fill="#fffbde" fill-opacity="1"><g transform="translate(33.290992, 258.552502)"><g><path d="M 9.390625 0 L 7.703125 0 L 7.53125 -8.53125 L 3.75 0 L 2.125 0 L 1.90625 -10.65625 L 3.265625 -10.65625 L 3.375 -2.015625 L 7.171875 -10.65625 L 8.75 -10.65625 L 8.921875 -2.015625 L 12.734375 -10.65625 L 14.15625 -10.65625 Z M 9.390625 0 "/></g></g></g><g fill="#fffbde" fill-opacity="1"><g transform="translate(47.922718, 258.552502)"><g><path d="M 4.1875 0 L -0.078125 0 L 0.171875 -1.234375 L 1.609375 -1.234375 L 3.359375 -9.453125 L 1.921875 -9.453125 L 2.171875 -10.65625 L 6.4375 -10.65625 L 6.1875 -9.453125 L 4.734375 -9.453125 L 3 -1.234375 L 4.421875 -1.234375 Z M 4.1875 0 "/></g></g></g><g fill="#fffbde" fill-opacity="1"><g transform="translate(55.100654, 258.552502)"><g><path d="M 1.5625 -2.578125 C 1.625 -2.367188 1.710938 -2.171875 1.828125 -1.984375 C 1.953125 -1.804688 2.113281 -1.644531 2.3125 -1.5 C 2.507812 -1.363281 2.75 -1.253906 3.03125 -1.171875 C 3.320312 -1.085938 3.675781 -1.046875 4.09375 -1.046875 C 4.457031 -1.046875 4.800781 -1.085938 5.125 -1.171875 C 5.445312 -1.265625 5.726562 -1.390625 5.96875 -1.546875 C 6.207031 -1.710938 6.394531 -1.910156 6.53125 -2.140625 C 6.675781 -2.367188 6.75 -2.628906 6.75 -2.921875 C 6.75 -3.140625 6.722656 -3.335938 6.671875 -3.515625 C 6.628906 -3.691406 6.539062 -3.851562 6.40625 -4 C 6.269531 -4.144531 6.070312 -4.28125 5.8125 -4.40625 C 5.5625 -4.539062 5.226562 -4.671875 4.8125 -4.796875 C 4.1875 -4.984375 3.671875 -5.164062 3.265625 -5.34375 C 2.859375 -5.53125 2.535156 -5.734375 2.296875 -5.953125 C 2.066406 -6.171875 1.90625 -6.410156 1.8125 -6.671875 C 1.71875 -6.929688 1.671875 -7.238281 1.671875 -7.59375 C 1.671875 -7.988281 1.75 -8.378906 1.90625 -8.765625 C 2.0625 -9.160156 2.304688 -9.515625 2.640625 -9.828125 C 2.972656 -10.140625 3.394531 -10.390625 3.90625 -10.578125 C 4.414062 -10.773438 5.023438 -10.875 5.734375 -10.875 C 6.191406 -10.875 6.597656 -10.832031 6.953125 -10.75 C 7.316406 -10.664062 7.640625 -10.539062 7.921875 -10.375 C 8.203125 -10.207031 8.441406 -10 8.640625 -9.75 C 8.847656 -9.507812 9.023438 -9.222656 9.171875 -8.890625 L 7.9375 -8.203125 C 7.78125 -8.640625 7.503906 -8.984375 7.109375 -9.234375 C 6.710938 -9.484375 6.203125 -9.609375 5.578125 -9.609375 C 5.148438 -9.609375 4.78125 -9.554688 4.46875 -9.453125 C 4.164062 -9.347656 3.914062 -9.207031 3.71875 -9.03125 C 3.53125 -8.863281 3.390625 -8.664062 3.296875 -8.4375 C 3.210938 -8.21875 3.171875 -7.992188 3.171875 -7.765625 C 3.171875 -7.578125 3.1875 -7.414062 3.21875 -7.28125 C 3.257812 -7.144531 3.351562 -7.015625 3.5 -6.890625 C 3.644531 -6.773438 3.851562 -6.65625 4.125 -6.53125 C 4.40625 -6.414062 4.785156 -6.285156 5.265625 -6.140625 C 5.847656 -5.953125 6.328125 -5.757812 6.703125 -5.5625 C 7.085938 -5.375 7.394531 -5.160156 7.625 -4.921875 C 7.851562 -4.691406 8.015625 -4.429688 8.109375 -4.140625 C 8.203125 -3.847656 8.25 -3.515625 8.25 -3.140625 C 8.25 -2.554688 8.128906 -2.050781 7.890625 -1.625 C 7.648438 -1.207031 7.332031 -0.859375 6.9375 -0.578125 C 6.539062 -0.304688 6.085938 -0.109375 5.578125 0.015625 C 5.066406 0.148438 4.539062 0.21875 4 0.21875 C 3.382812 0.21875 2.859375 0.160156 2.421875 0.046875 C 1.992188 -0.0664062 1.632812 -0.222656 1.34375 -0.421875 C 1.050781 -0.617188 0.816406 -0.847656 0.640625 -1.109375 C 0.472656 -1.378906 0.335938 -1.660156 0.234375 -1.953125 Z M 1.5625 -2.578125 "/></g></g></g><g fill="#fffbde" fill-opacity="1"><g transform="translate(65.72828, 258.552502)"><g><path d="M -0.359375 0 L 5.390625 -10.65625 L 7.203125 -10.65625 L 8.5625 0 L 7.109375 0 L 6.78125 -2.765625 L 2.625 -2.765625 L 1.109375 0 Z M 3.28125 -4.0625 L 6.625 -4.0625 L 6.015625 -9.25 Z M 3.28125 -4.0625 "/></g></g></g><g fill="#fffbde" fill-opacity="1"><g transform="translate(76.817915, 258.552502)"><g><path d="M 6.296875 -9.375 L 4.296875 0 L 2.921875 0 L 4.90625 -9.375 L 1.453125 -9.375 L 1.71875 -10.65625 L 10.03125 -10.65625 L 9.765625 -9.375 Z M 6.296875 -9.375 "/></g></g></g><g fill="#fffbde" fill-opacity="1"><g transform="translate(87.114429, 258.552502)"><g><path d="M -0.359375 0 L 5.390625 -10.65625 L 7.203125 -10.65625 L 8.5625 0 L 7.109375 0 L 6.78125 -2.765625 L 2.625 -2.765625 L 1.109375 0 Z M 3.28125 -4.0625 L 6.625 -4.0625 L 6.015625 -9.25 Z M 3.28125 -4.0625 "/></g></g></g><g fill="#fffbde" fill-opacity="1"><g transform="translate(48.260172, 276.950835)"><g><path d="M 6.671875 0 L 7.6875 -4.875 L 2.9375 -4.875 L 1.90625 0 L 0.53125 0 L 2.765625 -10.65625 L 4.171875 -10.65625 L 3.21875 -6.171875 L 7.96875 -6.171875 L 8.921875 -10.65625 L 10.3125 -10.65625 L 8.0625 0 Z M 6.671875 0 "/></g></g></g><g fill="#fffbde" fill-opacity="1"><g transform="translate(59.927322, 276.950835)"><g><path d="M 4.1875 0 L -0.078125 0 L 0.171875 -1.234375 L 1.609375 -1.234375 L 3.359375 -9.453125 L 1.921875 -9.453125 L 2.171875 -10.65625 L 6.4375 -10.65625 L 6.1875 -9.453125 L 4.734375 -9.453125 L 3 -1.234375 L 4.421875 -1.234375 Z M 4.1875 0 "/></g></g></g><g fill="#fffbde" fill-opacity="1"><g transform="translate(67.105259, 276.950835)"><g><path d="M 5.046875 -2.90625 C 4.921875 -2.332031 4.765625 -1.84375 4.578125 -1.4375 C 4.390625 -1.039062 4.160156 -0.71875 3.890625 -0.46875 C 3.617188 -0.21875 3.289062 -0.0390625 2.90625 0.0625 C 2.53125 0.175781 2.09375 0.234375 1.59375 0.234375 C 1.226562 0.234375 0.882812 0.191406 0.5625 0.109375 C 0.25 0.0351562 -0.0195312 -0.0507812 -0.25 -0.15625 L 0.296875 -1.359375 C 0.472656 -1.253906 0.6875 -1.171875 0.9375 -1.109375 C 1.1875 -1.054688 1.4375 -1.03125 1.6875 -1.03125 C 2.007812 -1.03125 2.28125 -1.070312 2.5 -1.15625 C 2.726562 -1.25 2.921875 -1.394531 3.078125 -1.59375 C 3.234375 -1.789062 3.363281 -2.046875 3.46875 -2.359375 C 3.582031 -2.671875 3.6875 -3.046875 3.78125 -3.484375 L 5.296875 -10.65625 L 6.6875 -10.65625 Z M 5.046875 -2.90625 "/></g></g></g><g fill="#fffbde" fill-opacity="1"><g transform="translate(75.145619, 276.950835)"><g><path d="M -0.359375 0 L 5.390625 -10.65625 L 7.203125 -10.65625 L 8.5625 0 L 7.109375 0 L 6.78125 -2.765625 L 2.625 -2.765625 L 1.109375 0 Z M 3.28125 -4.0625 L 6.625 -4.0625 L 6.015625 -9.25 Z M 3.28125 -4.0625 "/></g></g></g><g fill="#fffbde" fill-opacity="1"><g transform="translate(86.235253, 276.950835)"><g><path d="M 9.3125 -4.453125 C 9.113281 -3.515625 8.878906 -2.742188 8.609375 -2.140625 C 8.347656 -1.535156 8.023438 -1.054688 7.640625 -0.703125 C 7.265625 -0.347656 6.816406 -0.101562 6.296875 0.03125 C 5.785156 0.164062 5.191406 0.234375 4.515625 0.234375 C 3.921875 0.234375 3.414062 0.171875 3 0.046875 C 2.582031 -0.0664062 2.242188 -0.242188 1.984375 -0.484375 C 1.722656 -0.722656 1.53125 -1.015625 1.40625 -1.359375 C 1.289062 -1.710938 1.234375 -2.117188 1.234375 -2.578125 C 1.234375 -3.140625 1.320312 -3.820312 1.5 -4.625 L 2.765625 -10.65625 L 4.171875 -10.65625 L 2.890625 -4.609375 C 2.847656 -4.421875 2.8125 -4.242188 2.78125 -4.078125 C 2.75 -3.921875 2.71875 -3.757812 2.6875 -3.59375 C 2.664062 -3.4375 2.648438 -3.273438 2.640625 -3.109375 C 2.628906 -2.941406 2.625 -2.765625 2.625 -2.578125 C 2.625 -2.066406 2.78125 -1.679688 3.09375 -1.421875 C 3.40625 -1.160156 3.894531 -1.03125 4.5625 -1.03125 C 5.0625 -1.03125 5.488281 -1.082031 5.84375 -1.1875 C 6.207031 -1.300781 6.519531 -1.5 6.78125 -1.78125 C 7.039062 -2.0625 7.265625 -2.4375 7.453125 -2.90625 C 7.640625 -3.382812 7.804688 -3.984375 7.953125 -4.703125 L 9.234375 -10.65625 L 10.625 -10.65625 Z M 9.3125 -4.453125 "/></g></g></g><g fill="#fffbde" fill-opacity="1"><g transform="translate(68.264316, 309.54464)"><g><path d="M 2.28125 -3.515625 C 2.25 -3.347656 2.222656 -3.1875 2.203125 -3.03125 C 2.191406 -2.882812 2.1875 -2.742188 2.1875 -2.609375 C 2.1875 -2.066406 2.3125 -1.6875 2.5625 -1.46875 C 2.8125 -1.25 3.191406 -1.140625 3.703125 -1.140625 C 4.097656 -1.140625 4.453125 -1.210938 4.765625 -1.359375 C 5.085938 -1.515625 5.382812 -1.734375 5.65625 -2.015625 L 6.578125 -1.046875 C 6.390625 -0.847656 6.191406 -0.664062 5.984375 -0.5 C 5.785156 -0.34375 5.5625 -0.207031 5.3125 -0.09375 C 5.070312 0.0078125 4.804688 0.0859375 4.515625 0.140625 C 4.222656 0.203125 3.898438 0.234375 3.546875 0.234375 C 3.035156 0.234375 2.59375 0.164062 2.21875 0.03125 C 1.84375 -0.101562 1.53125 -0.289062 1.28125 -0.53125 C 1.03125 -0.78125 0.847656 -1.078125 0.734375 -1.421875 C 0.617188 -1.773438 0.5625 -2.171875 0.5625 -2.609375 C 0.5625 -2.921875 0.582031 -3.238281 0.625 -3.5625 C 0.675781 -3.882812 0.75 -4.207031 0.84375 -4.53125 C 0.945312 -4.851562 1.070312 -5.171875 1.21875 -5.484375 C 1.375 -5.796875 1.546875 -6.09375 1.734375 -6.375 C 1.898438 -6.601562 2.085938 -6.8125 2.296875 -7 C 2.503906 -7.195312 2.734375 -7.363281 2.984375 -7.5 C 3.242188 -7.644531 3.53125 -7.753906 3.84375 -7.828125 C 4.15625 -7.898438 4.5 -7.9375 4.875 -7.9375 C 5.320312 -7.9375 5.710938 -7.875 6.046875 -7.75 C 6.390625 -7.632812 6.671875 -7.46875 6.890625 -7.25 C 7.117188 -7.03125 7.285156 -6.765625 7.390625 -6.453125 C 7.503906 -6.140625 7.5625 -5.785156 7.5625 -5.390625 C 7.5625 -5.335938 7.554688 -5.269531 7.546875 -5.1875 C 7.546875 -5.101562 7.539062 -5.015625 7.53125 -4.921875 C 7.519531 -4.828125 7.507812 -4.726562 7.5 -4.625 C 7.488281 -4.53125 7.472656 -4.445312 7.453125 -4.375 L 7.28125 -3.515625 Z M 5.96875 -4.6875 C 5.988281 -4.8125 6.003906 -4.929688 6.015625 -5.046875 C 6.023438 -5.171875 6.03125 -5.285156 6.03125 -5.390625 C 6.03125 -5.804688 5.929688 -6.117188 5.734375 -6.328125 C 5.535156 -6.546875 5.207031 -6.65625 4.75 -6.65625 C 4.394531 -6.65625 4.09375 -6.59375 3.84375 -6.46875 C 3.59375 -6.351562 3.375 -6.179688 3.1875 -5.953125 C 3.0625 -5.796875 2.941406 -5.609375 2.828125 -5.390625 C 2.722656 -5.171875 2.628906 -4.9375 2.546875 -4.6875 Z M 5.96875 -4.6875 "/></g></g></g><g fill="#fffbde" fill-opacity="1"><g transform="translate(77.588513, 309.54464)"><g><path d="M 1.375 -1.921875 C 1.53125 -1.628906 1.738281 -1.414062 2 -1.28125 C 2.257812 -1.144531 2.59375 -1.078125 3 -1.078125 C 3.238281 -1.078125 3.460938 -1.097656 3.671875 -1.140625 C 3.890625 -1.179688 4.070312 -1.242188 4.21875 -1.328125 C 4.375 -1.421875 4.5 -1.53125 4.59375 -1.65625 C 4.6875 -1.789062 4.734375 -1.945312 4.734375 -2.125 C 4.734375 -2.238281 4.71875 -2.34375 4.6875 -2.4375 C 4.65625 -2.53125 4.585938 -2.617188 4.484375 -2.703125 C 4.378906 -2.785156 4.226562 -2.867188 4.03125 -2.953125 C 3.84375 -3.046875 3.585938 -3.140625 3.265625 -3.234375 C 2.847656 -3.359375 2.5 -3.488281 2.21875 -3.625 C 1.945312 -3.769531 1.726562 -3.925781 1.5625 -4.09375 C 1.394531 -4.269531 1.28125 -4.460938 1.21875 -4.671875 C 1.15625 -4.878906 1.125 -5.113281 1.125 -5.375 C 1.125 -5.726562 1.191406 -6.054688 1.328125 -6.359375 C 1.460938 -6.671875 1.660156 -6.941406 1.921875 -7.171875 C 2.191406 -7.410156 2.523438 -7.597656 2.921875 -7.734375 C 3.316406 -7.867188 3.773438 -7.9375 4.296875 -7.9375 C 5.003906 -7.9375 5.570312 -7.820312 6 -7.59375 C 6.4375 -7.363281 6.785156 -7.03125 7.046875 -6.59375 L 5.71875 -5.78125 C 5.675781 -5.882812 5.609375 -5.988281 5.515625 -6.09375 C 5.429688 -6.195312 5.328125 -6.285156 5.203125 -6.359375 C 5.078125 -6.441406 4.925781 -6.503906 4.75 -6.546875 C 4.570312 -6.597656 4.367188 -6.625 4.140625 -6.625 C 3.898438 -6.625 3.691406 -6.59375 3.515625 -6.53125 C 3.335938 -6.476562 3.1875 -6.40625 3.0625 -6.3125 C 2.9375 -6.21875 2.84375 -6.109375 2.78125 -5.984375 C 2.71875 -5.867188 2.6875 -5.753906 2.6875 -5.640625 C 2.6875 -5.523438 2.695312 -5.421875 2.71875 -5.328125 C 2.75 -5.234375 2.804688 -5.144531 2.890625 -5.0625 C 2.984375 -4.976562 3.109375 -4.894531 3.265625 -4.8125 C 3.429688 -4.738281 3.640625 -4.664062 3.890625 -4.59375 C 4.347656 -4.46875 4.734375 -4.332031 5.046875 -4.1875 C 5.359375 -4.050781 5.609375 -3.894531 5.796875 -3.71875 C 5.984375 -3.539062 6.113281 -3.335938 6.1875 -3.109375 C 6.269531 -2.878906 6.3125 -2.617188 6.3125 -2.328125 C 6.3125 -1.972656 6.238281 -1.640625 6.09375 -1.328125 C 5.945312 -1.015625 5.726562 -0.742188 5.4375 -0.515625 C 5.15625 -0.285156 4.800781 -0.101562 4.375 0.03125 C 3.945312 0.164062 3.457031 0.234375 2.90625 0.234375 C 2.476562 0.234375 2.101562 0.195312 1.78125 0.125 C 1.46875 0.0507812 1.195312 -0.0390625 0.96875 -0.15625 C 0.738281 -0.28125 0.550781 -0.425781 0.40625 -0.59375 C 0.257812 -0.757812 0.140625 -0.9375 0.046875 -1.125 Z M 1.375 -1.921875 "/></g></g></g><g fill="#fffbde" fill-opacity="1"><g transform="translate(86.155408, 309.54464)"><g><path d="M 4.28125 0 C 4.039062 0.0703125 3.789062 0.128906 3.53125 0.171875 C 3.269531 0.210938 3.023438 0.234375 2.796875 0.234375 C 2.453125 0.234375 2.160156 0.191406 1.921875 0.109375 C 1.679688 0.0234375 1.484375 -0.0859375 1.328125 -0.234375 C 1.179688 -0.390625 1.070312 -0.570312 1 -0.78125 C 0.925781 -0.988281 0.890625 -1.222656 0.890625 -1.484375 C 0.890625 -1.628906 0.898438 -1.789062 0.921875 -1.96875 C 0.941406 -2.15625 0.96875 -2.34375 1 -2.53125 L 1.84375 -6.421875 L 0.828125 -6.421875 L 1.109375 -7.71875 L 2.109375 -7.71875 L 2.578125 -9.859375 L 4.125 -9.859375 L 3.65625 -7.71875 L 5.5 -7.71875 L 5.25 -6.421875 L 3.390625 -6.421875 L 2.578125 -2.578125 C 2.535156 -2.421875 2.503906 -2.273438 2.484375 -2.140625 C 2.460938 -2.003906 2.453125 -1.882812 2.453125 -1.78125 C 2.453125 -1.53125 2.507812 -1.347656 2.625 -1.234375 C 2.738281 -1.128906 2.910156 -1.078125 3.140625 -1.078125 C 3.304688 -1.078125 3.492188 -1.09375 3.703125 -1.125 C 3.921875 -1.164062 4.113281 -1.21875 4.28125 -1.28125 Z M 4.28125 0 "/></g></g></g><g fill="#fffbde" fill-opacity="1"><g transform="translate(92.751846, 309.54464)"><g><path d="M 2.484375 -1.25 C 2.484375 -1.125 2.46875 -0.988281 2.4375 -0.84375 C 2.414062 -0.707031 2.363281 -0.570312 2.28125 -0.4375 C 2.1875 -0.238281 2.050781 -0.0976562 1.875 -0.015625 C 1.695312 0.0664062 1.46875 0.109375 1.1875 0.109375 C 0.882812 0.109375 0.664062 0.0546875 0.53125 -0.046875 C 0.40625 -0.160156 0.34375 -0.316406 0.34375 -0.515625 C 0.34375 -0.628906 0.359375 -0.753906 0.390625 -0.890625 C 0.421875 -1.023438 0.460938 -1.15625 0.515625 -1.28125 C 0.597656 -1.488281 0.726562 -1.640625 0.90625 -1.734375 C 1.082031 -1.835938 1.316406 -1.890625 1.609375 -1.890625 C 1.921875 -1.890625 2.144531 -1.835938 2.28125 -1.734375 C 2.414062 -1.628906 2.484375 -1.46875 2.484375 -1.25 Z M 2.484375 -1.25 "/></g></g></g><g fill="#fffbde" fill-opacity="1"><g transform="translate(57.363089, 324.602451)"><g><path d="M 0.078125 0 L 0.40625 -1.578125 C 0.8125 -1.878906 1.242188 -2.203125 1.703125 -2.546875 C 2.160156 -2.890625 2.609375 -3.234375 3.046875 -3.578125 C 3.492188 -3.929688 3.910156 -4.269531 4.296875 -4.59375 C 4.679688 -4.925781 5.007812 -5.226562 5.28125 -5.5 C 5.445312 -5.664062 5.601562 -5.835938 5.75 -6.015625 C 5.90625 -6.191406 6.039062 -6.375 6.15625 -6.5625 C 6.28125 -6.757812 6.375 -6.957031 6.4375 -7.15625 C 6.507812 -7.351562 6.546875 -7.554688 6.546875 -7.765625 C 6.546875 -8.109375 6.445312 -8.378906 6.25 -8.578125 C 6.050781 -8.773438 5.726562 -8.875 5.28125 -8.875 C 4.8125 -8.875 4.394531 -8.765625 4.03125 -8.546875 C 3.675781 -8.328125 3.347656 -8.035156 3.046875 -7.671875 L 1.890625 -8.71875 C 2.117188 -8.976562 2.351562 -9.210938 2.59375 -9.421875 C 2.84375 -9.628906 3.113281 -9.804688 3.40625 -9.953125 C 3.695312 -10.097656 4.015625 -10.207031 4.359375 -10.28125 C 4.703125 -10.351562 5.082031 -10.390625 5.5 -10.390625 C 5.957031 -10.390625 6.363281 -10.335938 6.71875 -10.234375 C 7.070312 -10.140625 7.367188 -9.988281 7.609375 -9.78125 C 7.859375 -9.570312 8.046875 -9.3125 8.171875 -9 C 8.296875 -8.6875 8.359375 -8.3125 8.359375 -7.875 C 8.359375 -7.59375 8.3125 -7.3125 8.21875 -7.03125 C 8.132812 -6.75 8.007812 -6.46875 7.84375 -6.1875 C 7.6875 -5.914062 7.5 -5.648438 7.28125 -5.390625 C 7.0625 -5.140625 6.828125 -4.894531 6.578125 -4.65625 C 6.328125 -4.414062 6.0625 -4.179688 5.78125 -3.953125 C 5.507812 -3.722656 5.207031 -3.484375 4.875 -3.234375 C 4.550781 -2.992188 4.203125 -2.734375 3.828125 -2.453125 C 3.453125 -2.179688 3.039062 -1.882812 2.59375 -1.5625 L 7.3125 -1.5625 L 6.984375 0 Z M 0.078125 0 "/></g></g></g><g fill="#fffbde" fill-opacity="1"><g transform="translate(67.282834, 324.602451)"><g><path d="M 8.890625 -7.046875 C 8.890625 -6.753906 8.863281 -6.425781 8.8125 -6.0625 C 8.769531 -5.695312 8.707031 -5.320312 8.625 -4.9375 C 8.539062 -4.550781 8.4375 -4.160156 8.3125 -3.765625 C 8.195312 -3.378906 8.066406 -3.007812 7.921875 -2.65625 C 7.679688 -2.101562 7.414062 -1.640625 7.125 -1.265625 C 6.84375 -0.898438 6.53125 -0.601562 6.1875 -0.375 C 5.851562 -0.15625 5.484375 0 5.078125 0.09375 C 4.679688 0.1875 4.253906 0.234375 3.796875 0.234375 C 2.753906 0.234375 1.988281 -0.0351562 1.5 -0.578125 C 1.019531 -1.128906 0.78125 -1.960938 0.78125 -3.078125 C 0.78125 -3.359375 0.796875 -3.660156 0.828125 -3.984375 C 0.867188 -4.316406 0.925781 -4.65625 1 -5 C 1.082031 -5.351562 1.171875 -5.707031 1.265625 -6.0625 C 1.367188 -6.414062 1.484375 -6.753906 1.609375 -7.078125 C 1.828125 -7.648438 2.070312 -8.140625 2.34375 -8.546875 C 2.625 -8.960938 2.9375 -9.304688 3.28125 -9.578125 C 3.625 -9.847656 4.007812 -10.046875 4.4375 -10.171875 C 4.875 -10.296875 5.359375 -10.359375 5.890625 -10.359375 C 7.890625 -10.359375 8.890625 -9.253906 8.890625 -7.046875 Z M 6.375 -3.375 C 6.46875 -3.625 6.554688 -3.894531 6.640625 -4.1875 C 6.734375 -4.488281 6.816406 -4.800781 6.890625 -5.125 C 6.960938 -5.445312 7.015625 -5.769531 7.046875 -6.09375 C 7.085938 -6.414062 7.109375 -6.722656 7.109375 -7.015625 C 7.109375 -7.359375 7.078125 -7.648438 7.015625 -7.890625 C 6.960938 -8.128906 6.875 -8.320312 6.75 -8.46875 C 6.625 -8.613281 6.46875 -8.71875 6.28125 -8.78125 C 6.101562 -8.851562 5.890625 -8.890625 5.640625 -8.890625 C 5.328125 -8.890625 5.050781 -8.84375 4.8125 -8.75 C 4.582031 -8.65625 4.367188 -8.507812 4.171875 -8.3125 C 3.984375 -8.125 3.8125 -7.890625 3.65625 -7.609375 C 3.507812 -7.335938 3.367188 -7.015625 3.234375 -6.640625 C 3.148438 -6.390625 3.066406 -6.113281 2.984375 -5.8125 C 2.898438 -5.519531 2.828125 -5.21875 2.765625 -4.90625 C 2.703125 -4.59375 2.648438 -4.273438 2.609375 -3.953125 C 2.578125 -3.640625 2.5625 -3.332031 2.5625 -3.03125 C 2.5625 -2.382812 2.675781 -1.925781 2.90625 -1.65625 C 3.132812 -1.382812 3.476562 -1.25 3.9375 -1.25 C 4.207031 -1.25 4.457031 -1.285156 4.6875 -1.359375 C 4.914062 -1.429688 5.128906 -1.550781 5.328125 -1.71875 C 5.523438 -1.882812 5.707031 -2.101562 5.875 -2.375 C 6.050781 -2.644531 6.21875 -2.976562 6.375 -3.375 Z M 6.375 -3.375 "/></g></g></g><g fill="#fffbde" fill-opacity="1"><g transform="translate(77.761363, 324.602451)"><g><path d="M 0.078125 0 L 0.40625 -1.578125 C 0.8125 -1.878906 1.242188 -2.203125 1.703125 -2.546875 C 2.160156 -2.890625 2.609375 -3.234375 3.046875 -3.578125 C 3.492188 -3.929688 3.910156 -4.269531 4.296875 -4.59375 C 4.679688 -4.925781 5.007812 -5.226562 5.28125 -5.5 C 5.445312 -5.664062 5.601562 -5.835938 5.75 -6.015625 C 5.90625 -6.191406 6.039062 -6.375 6.15625 -6.5625 C 6.28125 -6.757812 6.375 -6.957031 6.4375 -7.15625 C 6.507812 -7.351562 6.546875 -7.554688 6.546875 -7.765625 C 6.546875 -8.109375 6.445312 -8.378906 6.25 -8.578125 C 6.050781 -8.773438 5.726562 -8.875 5.28125 -8.875 C 4.8125 -8.875 4.394531 -8.765625 4.03125 -8.546875 C 3.675781 -8.328125 3.347656 -8.035156 3.046875 -7.671875 L 1.890625 -8.71875 C 2.117188 -8.976562 2.351562 -9.210938 2.59375 -9.421875 C 2.84375 -9.628906 3.113281 -9.804688 3.40625 -9.953125 C 3.695312 -10.097656 4.015625 -10.207031 4.359375 -10.28125 C 4.703125 -10.351562 5.082031 -10.390625 5.5 -10.390625 C 5.957031 -10.390625 6.363281 -10.335938 6.71875 -10.234375 C 7.070312 -10.140625 7.367188 -9.988281 7.609375 -9.78125 C 7.859375 -9.570312 8.046875 -9.3125 8.171875 -9 C 8.296875 -8.6875 8.359375 -8.3125 8.359375 -7.875 C 8.359375 -7.59375 8.3125 -7.3125 8.21875 -7.03125 C 8.132812 -6.75 8.007812 -6.46875 7.84375 -6.1875 C 7.6875 -5.914062 7.5 -5.648438 7.28125 -5.390625 C 7.0625 -5.140625 6.828125 -4.894531 6.578125 -4.65625 C 6.328125 -4.414062 6.0625 -4.179688 5.78125 -3.953125 C 5.507812 -3.722656 5.207031 -3.484375 4.875 -3.234375 C 4.550781 -2.992188 4.203125 -2.734375 3.828125 -2.453125 C 3.453125 -2.179688 3.039062 -1.882812 2.59375 -1.5625 L 7.3125 -1.5625 L 6.984375 0 Z M 0.078125 0 "/></g></g></g><g fill="#fffbde" fill-opacity="1"><g transform="translate(87.681108, 324.602451)"><g><path d="M 6.75 -1.96875 L 6.34375 0 L 4.71875 0 L 5.125 -1.96875 L 0.046875 -1.96875 L 0.390625 -3.578125 L 6.84375 -10.171875 L 8.5 -10.171875 L 7.0625 -3.453125 L 8.359375 -3.453125 L 8.046875 -1.96875 Z M 6.375 -7.78125 L 2.09375 -3.453125 L 5.4375 -3.453125 Z M 6.375 -7.78125 "/></g></g></g></svg>